<svg xmlns="http://www.w3.org/2000/svg" width="233" height="77" xml:space="preserve"><path fill="#FFF" d="M77.287 36.163c-.431.451-.656 1.033-.774 1.611-.78-2.52-1.046-5.141-1.469-7.732-.181-1.108.008-3.182-.299-3.97-1.068-2.744-4.055-1.456-4.874-3.687.329-.219 1.241-.318 1.662-.284-1.547-1.082-.951-2.465-3.06-3.019-.249-.008-2.506-.158-2.313.648-1.554-2.4-1.999-4.398-4.281-6.523-2.322-2.165-4.552-4.142-7.449-5.51 1.536.517 4.443 2.358 5.446 1.512.864.583 1.295.578 1.295 1.414 0 .771 1.879 1.546 2.451 2.068 1.633 1.493 3.595 3.38 4.658 5.346.586.974 1.05-.036.467-.732-.543-.645-1.101-1.118-1.387-1.936-.58-1.659-.291-4.232-1.522-5.741-4.454-4.006-10.649-5.803-16.548-6.745-2.259-.36-4.204-1.39-6.429-1.936-1.69-.413-7.708-.866-7.8-.706-9.168.06-16.009 7.061-21.457 13.642 1.646-.222 3.352-2.253 4.657-3.23 1.62-1.211 3.586-2.338 5.33-3.398 3.858-2.346 10.554-5.703 15.259-5.242.157 1.57 2.037.025 3.158.05.012 0 2.286.799 2.485.887 4.155 1.875 8.624 2.661 12.752 4.742-3.87-1.778-8.259-3.233-12.524-3.648-2.178-.211-6.737-1.234-8.61-.074-2.803 1.734-6.734.718-9.68 2.481-2.291 1.371-4.169 3.383-6.623 4.686l.194.17c-2.33.756-4.14 3.481-5.826 4.952.043-.043-4.181 1.254-1.526 1.318-.237.473-.837 1.093.109 1.299-.367.112-1.047.279-.896.821-.882-.032-1.609-.1-1.376-.739-.567.101-1.218.22-.878-.299-.858.236-1.613-.097-2.269-.105-.595.13-1.792 1.874-1 2.199-2.574.484-2.711 1.795.144 2.048-1.833 2.083.856 3.661 1.244 5.725-2.437-.254-2.761 1.768-.841 2.981-2.42 1.684-3.462 5.454-5.268 7.771.527-.246 1.357-.702 1.954-.715-.236.668-1.009 1.077-1.667 1.199 1.273 1.632 7.231 5.844 4.315 7.45-1.795.986-.607 2.468 1.007 2.427-.664.919-.569 1.41-.185 2.387-.371-.365-.672-.863-.863-1.369l.174 1.087-.504-.119c.73 1.604 1.698 2.944 2.727 4.368-.06-1.333-1.069-2.159-1.266-3.38 1.622 3.124 5.765 5.451 6.425 9.034-.593.039-.944.089-1.234.614 1.476 1.662 3.045 2.626 4.359 4.662l-.735.096c3.262.857 5.683 5.16 9.147 6.401 3.911 1.401 13.398 4.373 17.4 1.565.439 2.472 9.501-3.06 10.557-3.415-.172 1.046-1.456 2.057-2.123 2.784 2.49-1.348 3.794-2.964 5.802-4.63 1.556-.005 2.255-1.503 3.451-1.606 1.724-.141 1.791-.763 2.703-1.759 3.859-4.243 8.491-8.19 10.414-13.78 2.011-5.852 4.487-10.743 4.478-17.086l-.668.67m-4.471-7.145c.245-.42.612-.708 1.102-.862.098-.138-1.102 1.624-1.102.862M9.432 24.5c.661-.198.929-.046 1.094.748v-1.01c.79.629 2.488.814 1.436-.641-.636-.772 1.987-3.047 2.848-3.645l-.528-.107c1.51-1.192 2.782-2.685 4.263-3.918 1.996-1.664 5.793-2.747 7.087-5.031 5.828-2.707 11.942-5.055 18.457-5.055-1.368.176-2.723.522-4.07.803 4.148.258 7.853.997 11.782 2.44 4.432 1.629 8.798 5.603 12.23 9.255-1.447.174-2.895.617-4.311.964.496.021 1.608.031 2.021.289 2.538.515-1.681 1.837-2.113 1.965-2.674.783-4.996 1.596-7.44 2.231-3.492.906-7.798-.039-11.139-1.18-1.604-.547-4.746-.954-6.446-.391.784.265 1.562.743 1.985 1.439-4.718.238-8.417.995-12.575 3.654l1.013-.315-.084.077c.616.039 1.255.07 1.872.019-.997 1.838-3.256 1.565-5.162 1.544 5.504 1.497-3.249 2.689-1.48 5.669-.464 1.675-.395 3.623-.531 5.267-.01.22.553.71.722.67.269.71-.821 1.663-.665 2.784-.264-.643-.74-1.217-1.002-1.88-.119 2.029.339 3.973 1.682 5.557.92 1.085 4.786 2.897 4.644 3.378.85.85-.665 2.885.811 4.301-3.062.648 5.186 4.082 5.198 4.11 5.443.046 9.954 1.586 15.111-.323 2.086-.769 2.961 1.607 5.075 1.723 1.747.085.526-1.298.448-2.133 1.349.405 2.349 2.2 3.297 3.161-.711 0-1.403.133-2.067.414 1.453 0 2.892.369 4.361.369-5.23 2.052-10.326 4.695-16.107 4.826-4.704-.003-11.269-.184-15.562-2.341-10.377-5.205-13.64-15.174-15.484-26.031.678 2.067 2.016 3.811 3.053 5.703.722-2.579-1.204-6.362-2.153-8.793l1.408 1.674c-1.375-2.747-2.395-5.051-2.395-7.873.851-1.589-.749-1.866-.834-.763-.097 1.252-.099 2.574-.073 3.834a137.98 137.98 0 0 0-.409-2.441l.282.062c-.043-.368-.181-1.061-.29-1.343-.821-2.15-.645-2.137.74-3.716m24.047 48.476c-1.914-.371-3.659-1.078-5.452-1.822 3.373.094 6.599 1.343 9.859 1.549 2.802.178 5.085.019 7.878-.606-3.911 1.784-8.199 2.705-12.285.879m18.847-18.639c.015.012.023.022.023.037a.373.373 0 0 0-.023-.037M22.837 31.958c2.807-1.579 2.633-2.242 4.769-.165-.012.024-2.856.184-2.147.8.587.51.427 1.215 1.033 1.779-.951.573-1.593.396-1.828-.675-.747.477-3.227 2.13-.926 2.397-.295.143-3.542 2.552-2.656 2.592-.363-1.483-.936-3.074.498-4.027-1.134-.97.23-2.207 1.257-2.701m41.334-7.42c.096-.145.205-.302.325-.475.003.254.025.496.062.729l-.387-.254M21.587 40.674a75.13 75.13 0 0 0-.163-.643c2.727.417-.415 2.859 1.993 4.337-.388.108-.776.239-1.159.369-.025-1.367-.329-2.749-.671-4.063m8.079-10.501c1.786-.643 2.944-2.894 5.162-3.424 3.318-.604 7.115.479 10.367 1.055l-.087.186c-5.862-.8-11.062 1.841-15.939 4.219-.907-.871-.244-1.185.497-2.036m26.63-2.043c.847.017 2.516-.21 3.293-.653-3.555 2.031-5.777 1.54-8.268.577.645.25 1.277-.002 2.072-.076.915-.085 2.006-.006 2.903.152m-5.281-.137c-.336-.07-2.175-.229-2.496-.31.972.017 2.12-.397 2.496.31m-28.776 17.4c.502-.029 1.027-.056 1.52-.134-.466.392-1.616 1.401-1.52.134m4.027 4.062a3.02 3.02 0 0 1-.494-1.338c.091.103 1.023.955.494 1.338m.335-20.176-.029-.029c.01.01.024.022.029.029m6.222 24.687c-1.653-1.039-5.309 1.856-5.583-2.005 1.828.591 3.763 1.394 5.919 1.832a2.143 2.143 0 0 0-.336.173m21.096-30.374c2.235.105 4.537-.49 6.801-.499-1.273 1.321-1.959 2.205-3.979 2.142-.603-.43-2.671-.89-3.289-.782.163-.285.315-.574.467-.861M55.1 65.713h2.59c-3.939.408-5.86 1.861-9.355 3.327-1.828.767-4.972 1.293-6.903 1.713-2.534.551-6.088-.875-8.71-1.185-2.191-.262-7.077-2.184-8.632-3.784 5.363 1.766 12.427 4.016 17.93 3.468 2.833-.365 5.849-2.512 8.577-2.512 2.685-.022 5.313-4.702 7.736-1.809-1.132.001-3.233.782-3.233.782M9.148 47.893c2.184 5.285 5.583 10.098 10.04 13.601-4.255-2.708-10.223-8.2-10.04-13.601m50.241 9.683.667-.668c-1.73.17-2.795-1.874-3.859-.929.455.215-4.114-2.333-3.796-1.377v-.01.01a.14.14 0 0 0 0-.05c0 .021 0 .019-.001-.01l.001.01c.077-4.385-25.216-.021-22.37-5.287-1.683.121-2.922.988-1.228 2.065-.689-.3-1.323-.655-1.832-1.092 1.02-.571-.386-2.349.38-3.303-.131-.676-.985-1.717-1.234-2.707-.561-2.24 1.436-9.641 4.181-9.071l-.879-.333c.799-.425 1.223-.621 1.989-.037l-.759-.582c3.06-1.473 7.094-4.023 10.453-4.27 4.195-.307 7.996 1.188 12.047 1.916 3.504.628 6.555-.692 9.731-2.038 3.399-1.439 4.241-2.076 4.643-6.022 4.573 2.357 4.631 11.082 3.688 15.266-.49 2.18-.46 5.242-1.68 7.059-1 1.49-2.721 3.453-2.269 5.377.755-.352 1.487-.805 2.087-1.387-2.408 3.622-6.091 12.274-11.603 8.328a2.908 2.908 0 0 0 1.643-.858M30.779 72.688"/><path d="m96.534 47.681-4.549-20.866h6.324l2.174 14.834h.066l1.974-14.834h5.989l1.874 14.834h.068l2.209-14.834h6.189l-4.684 20.866h-6.858l-1.806-12.85h-.068l-2.042 12.85h-6.86zm21.683-12.953c0-2.455 2.811-4.074 6.758-4.074 5.187 0 6.96 1.619 6.96 5.223v11.804h-5.286v-1.279h-.068c-.869 1.019-2.476 1.619-4.081 1.619-4.217 0-4.684-2.403-4.684-5.092 0-3.134 2.242-4.179 4.348-4.91 2.142-.705 4.216-1.097 4.216-2.899 0-.888-.267-1.384-1.338-1.384-1.037 0-1.471.444-1.471 1.148v1.358h-5.354v-1.514zm8.164 4.57-1.605.915c-.67.392-1.004.835-1.004 1.489v2.22c0 .94.468 1.332 1.272 1.332.904 0 1.338-.652 1.338-1.463v-4.493zm6.66-8.305V47.68h5.755V38.2c0-1.149.569-2.116 2.542-2.116h1.339v-5.432c-2.609 0-3.312 1.749-4.115 3.29h-.068v-2.95h-5.453zm17.404-.339c5.756 0 7.06 2.794 7.06 4.753v4.596h-8.365v3.577c0 .576 0 1.36 1.305 1.36s1.305-.784 1.305-1.36v-2.088h5.755v1.775c0 1.959-1.303 4.753-7.06 4.753-5.755 0-7.06-2.794-7.06-4.753v-7.86c0-1.959 1.305-4.753 7.06-4.753zm0 3.082c-1.305 0-1.305.783-1.305 1.358v1.828h2.61v-1.828c-.001-.576-.001-1.358-1.305-1.358zm18.336-3.082c-2.042 0-3.212.652-4.182 1.88h-.068v-5.719h-5.755v20.866h5.755V36.269c0-.392 0-1.593 1.305-1.593s1.305.991 1.305 1.593v11.412h5.755V34.232c.001-2.012-1.372-3.578-4.115-3.578zm19.508 12.613c0 1.959-1.306 4.753-7.06 4.753-5.755 0-7.06-2.794-7.06-4.753v-7.86c0-1.959 1.305-4.753 7.06-4.753 5.753 0 7.06 2.794 7.06 4.753v7.86zm-5.755-8.173c0-.576 0-1.358-1.305-1.358-1.306 0-1.306.783-1.306 1.358v8.486c0 .576 0 1.36 1.306 1.36 1.305 0 1.305-.784 1.305-1.36v-8.486zm15.224 7.311c0 .393 0 1.594-1.305 1.594s-1.305-.993-1.305-1.594V30.993h-5.755v13.449c0 2.012 1.372 3.578 4.115 3.578 2.208 0 3.345-.783 4.383-2.193h.068v1.854h5.554V30.993h-5.755v11.412zm15.995-4.256c-1.706-1.175-3.949-1.958-3.949-3.29 0-.757.468-1.123 1.272-1.123 1.204 0 1.237.887 1.237 1.305v.888h5.152v-.888c0-3.081-2.408-4.387-6.39-4.387-3.781 0-6.423 1.645-6.423 4.805 0 2.454 1.974 3.839 3.847 4.962 1.874 1.123 3.848 1.959 3.848 3.291 0 .757-.401 1.228-1.272 1.228-1.237 0-1.471-.836-1.471-1.49v-1.017h-5.153v1.096c0 2.743 1.539 4.492 6.624 4.492 6.256 0 6.625-3.552 6.625-4.91.001-2.559-1.973-3.787-3.947-4.962zm10.471 1.853v3.577c0 .576 0 1.36 1.306 1.36 1.305 0 1.305-.784 1.305-1.36v-2.088h5.754v1.775c0 1.959-1.303 4.753-7.058 4.753s-7.06-2.794-7.06-4.753v-7.86c0-1.959 1.305-4.753 7.06-4.753s7.058 2.794 7.058 4.753v4.596h-8.365zm0-3.08h2.611v-1.828c0-.576 0-1.358-1.305-1.358-1.306 0-1.306.783-1.306 1.358v1.828zM95.983 24.111h6.185V7.191h3.998v-4.04H91.985v4.04h3.998v16.92zM111.41 7.007c5.78 0 7.091 2.809 7.091 4.775v4.617H110.1v3.594c0 .577 0 1.364 1.31 1.364s1.31-.787 1.31-1.364v-2.098h5.781v1.783c0 1.967-1.312 4.775-7.091 4.775-5.781 0-7.091-2.808-7.091-4.775v-7.896c0-1.967 1.31-4.775 7.091-4.775zm-1.31 6.296h2.62v-1.836c0-.577 0-1.365-1.31-1.365s-1.31.787-1.31 1.365v1.836zm15.291-.656c0-.393 0-1.6 1.312-1.6 1.309 0 1.309.997 1.309 1.6v11.464h5.781v-13.51c0-2.02-1.378-3.595-4.133-3.595-2.218 0-3.362.788-4.403 2.205h-.068V7.348h-5.577v16.763h5.78V12.647zm15.293 0c0-.393 0-1.6 1.31-1.6s1.31.997 1.31 1.6v11.464h5.781v-13.51c0-2.02-1.379-3.595-4.133-3.595-2.218 0-3.362.788-4.403 2.205h-.068V7.348h-5.579v16.763h5.781V12.647zm15.427-9.496h-5.781v3.096h5.781V3.151zm0 4.197h-5.781v16.763h5.781V7.348zm7.393 17.104c6.285 0 6.655-3.568 6.655-4.932 0-2.571-1.983-3.804-3.965-4.984-1.714-1.181-3.967-1.967-3.967-3.306 0-.76.471-1.128 1.277-1.128 1.21 0 1.244.892 1.244 1.312v.892h5.175v-.892c0-3.095-2.419-4.408-6.419-4.408-3.797 0-6.453 1.654-6.453 4.827 0 2.467 1.984 3.857 3.866 4.985 1.882 1.128 3.865 1.966 3.865 3.304 0 .761-.404 1.232-1.277 1.232-1.243 0-1.478-.838-1.478-1.494v-1.024h-5.176v1.103c-.001 2.755 1.545 4.513 6.653 4.513zm-58.352 25.932 5.04 20.948h-6.484l-.572-3.723h-4.333l-.638 3.723h-6.181l4.971-20.948h8.197zm-2.619 13.502-1.445-10.25h-.068l-1.578 10.25h3.091zm16.263 2.15c0 .393 0 1.6-1.31 1.6s-1.31-.996-1.31-1.6V54.579h-5.778V68.08c0 2.019 1.378 3.593 4.132 3.593 2.217 0 3.359-.787 4.401-2.203h.068v1.862h5.576V54.579h-5.777v11.457zm15.892-4.274c-1.714-1.179-3.964-1.967-3.964-3.303 0-.761.47-1.128 1.276-1.128 1.21 0 1.243.892 1.243 1.311v.891h5.173v-.891c0-3.093-2.418-4.404-6.416-4.404-3.796 0-6.449 1.652-6.449 4.823 0 2.465 1.981 3.855 3.863 4.982 1.881 1.127 3.863 1.966 3.863 3.303 0 .76-.404 1.232-1.277 1.232-1.243 0-1.477-.838-1.477-1.494v-1.022h-5.173v1.101c0 2.753 1.544 4.51 6.65 4.51 6.283 0 6.652-3.566 6.652-4.93 0-2.569-1.982-3.8-3.964-4.981zm11.225 5.218v-8.967h1.444v-3.252h-1.444v-3.643h-5.778v3.643h-1.445v3.252h1.445v10.645c0 2.621 2.016 3.015 4.501 3.015h2.787v-3.409h-.738c-.772 0-.772-.865-.772-1.284zm7.866-9.438h-.068v-2.963h-5.476v16.753h5.779v-9.517c0-1.154.57-2.124 2.553-2.124h1.342v-5.452c-2.619 0-3.324 1.756-4.13 3.303zm18.478 1.94v11.85h-5.308v-1.285h-.066c-.874 1.022-2.487 1.626-4.099 1.626-4.234 0-4.704-2.412-4.704-5.113 0-3.146 2.251-4.195 4.367-4.928 2.149-.707 4.232-1.101 4.232-2.911 0-.891-.269-1.389-1.343-1.389-1.042 0-1.478.445-1.478 1.154v1.363h-5.375v-1.52c0-2.463 2.822-4.089 6.785-4.089 5.208-.001 6.989 1.625 6.989 5.242zm-5.577 3.435-1.612.917c-.672.393-1.009.839-1.009 1.495v2.228c0 .944.471 1.337 1.277 1.337.907 0 1.343-.655 1.343-1.468v-4.509zm6.786 8.415h5.778V50.384h-5.778v20.948zm6.915-17.854h5.778v-3.094h-5.778v3.094zm0 17.854h5.778V54.579h-5.778v16.753zm20.892-11.85v11.85h-5.308v-1.285h-.066c-.874 1.022-2.487 1.626-4.099 1.626-4.234 0-4.704-2.412-4.704-5.113 0-3.146 2.251-4.195 4.367-4.928 2.149-.707 4.232-1.101 4.232-2.911 0-.891-.269-1.389-1.343-1.389-1.042 0-1.478.445-1.478 1.154v1.363h-5.375v-1.52c0-2.463 2.822-4.089 6.785-4.089 5.207-.001 6.989 1.625 6.989 5.242zm-5.577 3.435-1.612.917c-.672.393-1.009.839-1.009 1.495v2.228c0 .944.471 1.337 1.277 1.337.907 0 1.343-.655 1.343-1.468v-4.509z"/></svg>